<svg width="186.4" height="71.201" viewBox="0 0 186.4 71.201" xmlns="http://www.w3.org/2000/svg">
    <g id="svgGroup" stroke-linecap="round" fill-rule="evenodd" font-size="9pt" stroke="#000" stroke-width="0.25mm"
       fill="#000" style="stroke:#000;stroke-width:0.25mm;fill:#000">
        <path d="M 94 70 L 94 62.2 A 16.522 16.522 0 0 1 82.159 70.674 A 25.273 25.273 0 0 1 77.4 71.1 Q 71.263 71.1 67.188 69.199 A 13.319 13.319 0 0 1 63.15 66.35 Q 59.346 62.379 58.722 55.299 A 33.041 33.041 0 0 1 58.6 52.4 L 58.6 19.9 L 60.5 19.9 L 60.5 52.4 Q 60.5 57.977 62.349 61.752 A 13.044 13.044 0 0 0 64.4 64.8 A 11.487 11.487 0 0 0 68.808 67.739 Q 70.653 68.462 72.963 68.801 A 30.654 30.654 0 0 0 77.4 69.1 A 20.75 20.75 0 0 0 82.982 68.384 A 16.015 16.015 0 0 0 89.3 65 A 13.478 13.478 0 0 0 93.927 55.681 A 18.817 18.817 0 0 0 94 54 L 94 19.9 L 95.9 19.9 L 95.9 70 L 94 70 Z M 184.5 70 L 184.5 35.3 A 17.305 17.305 0 0 0 184.012 31.056 A 11.182 11.182 0 0 0 179.5 24.4 Q 174.5 20.9 167 20.9 Q 162.9 20.9 158.75 21.9 A 35.098 35.098 0 0 0 154.609 23.16 A 27.411 27.411 0 0 0 151.4 24.6 L 151.4 70 L 149.5 70 L 149.5 19.9 L 151.4 19.9 L 151.4 22.5 A 32.587 32.587 0 0 1 163.669 19.123 A 39.242 39.242 0 0 1 166.8 19 A 36.377 36.377 0 0 1 171.18 19.248 Q 173.479 19.528 175.404 20.122 A 17.315 17.315 0 0 1 177.9 21.1 Q 186.4 25 186.4 35.4 L 186.4 70 L 184.5 70 Z M 0 70 L 0 0 L 33.4 0 L 33.4 2 L 2 2 L 2 28.7 L 22.7 28.7 L 21.9 30.6 L 2 30.6 L 2 70 L 0 70 Z M 103.2 56.6 L 103.2 36.1 A 20.85 20.85 0 0 1 103.824 30.85 A 14.479 14.479 0 0 1 108.25 23.5 A 17.261 17.261 0 0 1 116.166 19.556 A 25.16 25.16 0 0 1 121.6 19 A 24.893 24.893 0 0 1 126.847 19.52 Q 131.489 20.521 134.55 23.45 A 14.609 14.609 0 0 1 138.699 30.987 A 21.87 21.87 0 0 1 139.2 35.8 L 139.2 45.3 L 105.1 47 L 105.1 56.8 A 15.324 15.324 0 0 0 105.551 60.633 A 10.369 10.369 0 0 0 109.1 66.25 Q 113.088 69.49 119.462 69.5 A 25.052 25.052 0 0 0 119.5 69.5 A 26.93 26.93 0 0 0 124.406 69.031 A 33.412 33.412 0 0 0 127.5 68.3 A 38.085 38.085 0 0 0 134.709 65.392 A 43.019 43.019 0 0 0 135.8 64.8 L 136.7 66.5 A 27.28 27.28 0 0 1 130.805 69.308 A 32.508 32.508 0 0 1 128.5 70 Q 123.9 71.2 119.3 71.2 A 24.291 24.291 0 0 1 114.474 70.749 Q 110.371 69.917 107.55 67.55 A 11.614 11.614 0 0 1 103.812 61.562 Q 103.276 59.616 103.21 57.276 A 23.658 23.658 0 0 1 103.2 56.6 Z M 45.1 70 L 45.1 0 L 47 0 L 47 70 L 45.1 70 Z M 105.1 36 L 105.1 45.2 L 137.3 43.4 L 137.3 35.7 A 21.094 21.094 0 0 0 136.911 31.505 Q 135.956 26.803 132.65 24.35 Q 128 20.9 121.5 20.9 Q 114.8 20.9 109.95 24.55 A 11.603 11.603 0 0 0 105.699 31.029 Q 105.175 32.979 105.109 35.322 A 24.226 24.226 0 0 0 105.1 36 Z"
              vector-effect="non-scaling-stroke"/>
    </g>
</svg>
